<?xml version="1.0" encoding="utf-8"?>
<!-- Svg Vector Icons : http://www.onlinewebfonts.com/icon -->
<!DOCTYPE svg PUBLIC "-//W3C//DTD SVG 1.1//EN" "http://www.w3.org/Graphics/SVG/1.1/DTD/svg11.dtd">
<svg version="1.1" xmlns="http://www.w3.org/2000/svg" xmlns:xlink="http://www.w3.org/1999/xlink" x="0px" y="0px" viewBox="0 0 1000 1000" enable-background="new 0 0 1000 1000" xml:space="preserve">
<metadata> Svg Vector Icons : http://www.onlinewebfonts.com/icon </metadata>
<g><g transform="translate(0.000000,511.000000) scale(0.100000,-0.100000)"><path d="M4749.8,4971.1c-52.3-20.5-150.1-70.5-218.3-109.2C4429.2,4802.8,533.4,1919,415.1,1814.4c-61.4-54.6-95.5-204.7-66-295.7c54.6-161.5-13.6-156.9,1723.9-163.7l1553.3-6.8l-81.9,163.8c-118.3,234.2-170.6,459.4-170.6,734.6c0,282,43.2,468.5,159.2,707.3c197.9,409.4,539,705,977.9,852.8c211.5,70.5,614,88.7,850.6,34.1c579.9-127.4,1071.2-605,1221.3-1187.2c50-200.1,61.4-561.7,22.7-739.1c-34.1-147.8-111.4-352.5-177.4-466.2l-56.9-97.8h1505.6c1089.4,0,1532.9,6.8,1596.5,27.3c93.2,27.3,200.1,131.9,200.1,195.6c-2.3,141-61.4,186.5-2160.5,1748.9C6312.2,4216,5388.9,4886.9,5297.9,4932.4c-131.9,68.2-179.7,79.6-307,77.3C4904.5,5009.7,4802.1,4993.8,4749.8,4971.1z"/><path d="M4886.3,3551.9c-4.6-15.9-13.7-84.1-15.9-152.4l-6.8-120.5l-129.6-40.9c-220.6-68.2-341.1-197.9-382.1-409.4c-38.7-204.7,2.3-352.5,134.2-477.6c61.4-56.9,168.3-127.4,243.4-156.9c291.1-120.5,375.2-168.3,407.1-232c66-125.1,18.2-266.1-106.9-318.4c-100.1-43.2-432.1-36.4-559.5,11.4l-97.8,34.1l-22.7-59.1c-27.3-70.5-70.5-261.5-61.4-268.4c34.1-31.8,270.6-86.4,411.6-95.5l175.1-13.6v-141c0-134.2,4.6-143.3,56.9-156.9c31.8-9.1,81.9-9.1,113.7,0c54.6,13.6,56.9,22.7,56.9,166v150.1l159.2,75c257,120.5,357.1,300.2,336.6,600.4c-13.6,168.3-70.5,282-179.6,361.6c-38.7,27.3-184.2,97.8-322.9,159.2c-293.4,127.4-338.9,170.6-329.8,300.2c11.4,138.7,88.7,186.5,297.9,181.9c91-2.3,211.5-20.5,266.1-38.7c93.2-31.8,104.6-31.8,129.6,0c27.3,36.4,81.9,259.3,68.2,272.9c-6.8,9.1-252.5,68.2-361.6,88.7c-61.4,11.4-63.7,18.2-63.7,145.6c0,145.5-13.6,161.5-138.7,161.5C4927.2,3579.2,4890.8,3565.6,4886.3,3551.9z"/><path d="M1368,1114c-147.8-38.7-252.4-127.4-322.9-268.4c-154.7-311.6,4.5-661.8,345.7-748.2l95.5-25v-1269v-1269l-72.8-15.9c-345.7-75-523.1-432.1-373-755.1c68.2-143.3,197.9-243.3,361.6-279.7c84.2-18.2,1123.5-22.7,3677.5-18.2l3559.2,6.8l106.9,63.7c193.3,113.7,279.7,275.2,263.8,504.9c-6.8,118.3-22.7,166-77.3,243.3c-81.9,118.3-188.8,193.3-320.7,227.4l-97.8,22.7V-1199V67.8l97.8,25c332.1,88.7,493.5,429.8,350.3,741.4c-31.9,70.5-88.7,147.8-136.5,184.2c-163.8,125.1-195.6,127.4-1460.1,127.4H6203.1l-79.6-81.9c-166-175.1-504.9-357.1-786.9-418.5c-177.4-40.9-543.5-29.6-741.4,20.5c-234.3,61.4-502.6,202.4-670.9,357.1l-136.5,122.8l-1157.6-2.3C1777.4,1143.5,1447.6,1134.4,1368,1114z M3487.6-1196.7v-1273.6h-466.2h-466.2v1273.6V76.9h466.2h466.2V-1196.7z M5466.2-1196.7v-1273.6H5000h-466.2v1273.6V76.9H5000h466.2V-1196.7z M7444.8-1196.7v-1273.6H6990h-454.9v1273.6V76.9H6990h454.8V-1196.7z"/><path d="M565.2-3775.7c-186.5-81.9-329.8-295.6-329.8-491.2c0-197.9,145.6-413.9,334.3-493.5c61.4-25,825.6-29.6,4434.8-29.6c4189.2,0,4366.6,2.3,4455.3,43.2c172.9,79.6,304.8,282,304.8,477.6c0,193.3-131.9,402.5-304.8,482.1c-88.7,41-266.1,43.2-4459.8,41C1449.9-3746.1,619.8-3750.7,565.2-3775.7z"/></g></g>
</svg>